<svg width="28" height="28" viewBox="0 0 28 28" fill="none" xmlns="http://www.w3.org/2000/svg">
<g filter="url(#filter0_i_5_16)">
<path d="M28 14C28 21.732 21.732 28 14 28C6.26801 28 0 21.732 0 14C0 6.26801 6.26801 0 14 0C21.732 0 28 6.26801 28 14Z" fill="#1A222D"/>
<path d="M9.37547 18.999L10.6255 17.437L6.60147 14.218L10.6255 10.999L9.37547 9.437L4.37547 13.437C4.25831 13.5307 4.16374 13.6495 4.09874 13.7847C4.03375 13.9199 4 14.068 4 14.218C4 14.368 4.03375 14.5161 4.09874 14.6513C4.16374 14.7865 4.25831 14.9053 4.37547 14.999L9.37547 18.999ZM18.6255 9.437L17.3755 10.999L21.3995 14.218L17.3755 17.437L18.6255 18.999L23.6255 14.999C23.7426 14.9053 23.8372 14.7865 23.9022 14.6513C23.9672 14.5161 24.0009 14.368 24.0009 14.218C24.0009 14.068 23.9672 13.9199 23.9022 13.7847C23.8372 13.6495 23.7426 13.5307 23.6255 13.437L18.6255 9.437ZM16.9765 5.434L12.9765 23.434L11.0235 23L15.0235 5L16.9765 5.434Z" fill="#21CE64"/>
</g>
<defs>
<filter id="filter0_i_5_16" x="0" y="0" width="32" height="32" filterUnits="userSpaceOnUse" color-interpolation-filters="sRGB">
<feFlood flood-opacity="0" result="BackgroundImageFix"/>
<feBlend mode="normal" in="SourceGraphic" in2="BackgroundImageFix" result="shape"/>
<feColorMatrix in="SourceAlpha" type="matrix" values="0 0 0 0 0 0 0 0 0 0 0 0 0 0 0 0 0 0 127 0" result="hardAlpha"/>
<feOffset dx="4" dy="4"/>
<feGaussianBlur stdDeviation="2"/>
<feComposite in2="hardAlpha" operator="arithmetic" k2="-1" k3="1"/>
<feColorMatrix type="matrix" values="0 0 0 0 0 0 0 0 0 0 0 0 0 0 0 0 0 0 0.25 0"/>
<feBlend mode="normal" in2="shape" result="effect1_innerShadow_5_16"/>
</filter>
</defs>
</svg>
